<svg width="341" height="341" viewBox="0 0 341 341" fill="none" xmlns="http://www.w3.org/2000/svg">
<g clip-path="url(#clip0_106_2)">
<path d="M69.5 117.5C49 102.5 88.4999 75.5 91 90.5" stroke="black" stroke-width="7"/>
<path d="M146.725 77.1106L301.512 166.477C303.665 167.72 304.402 170.472 303.16 172.624L239.66 282.61C238.417 284.762 235.665 285.499 233.512 284.257L76.5902 193.658C75.6718 193.127 74.9699 192.29 74.6089 191.292L56.2925 140.701C55.8406 139.453 55.963 138.069 56.6267 136.919L80.8952 94.8847C81.4903 93.854 82.4695 93.1015 83.6184 92.791L143.301 76.664C144.456 76.3518 145.688 76.5123 146.725 77.1106Z" stroke="black" stroke-width="3"/>
<circle cx="93.0001" cy="131.573" r="15" stroke="black" stroke-width="3"/>
<path d="M86.5 130.603C82.4615 156.16 47.0577 16.0709 41 -15.5" stroke="black" stroke-width="7"/>
<path d="M97.5 128.603C93.5769 154.16 57.8846 12.5709 52 -19" stroke="black" stroke-width="7"/>
<path d="M159.896 149.127L159.971 148.997C162.381 144.823 165.214 141.516 168.469 139.077C171.735 136.621 175.333 135.049 179.263 134.362C183.22 133.668 187.469 133.869 192.009 134.966C196.558 136.046 201.336 138.03 206.342 140.92C211.001 143.61 214.942 146.544 218.165 149.721C221.416 152.891 223.872 156.157 225.534 159.518C227.196 162.88 228.028 166.258 228.03 169.654C228.033 173.05 227.139 176.299 225.349 179.399C223.919 181.876 222.15 183.88 220.042 185.411C217.934 186.942 215.639 187.996 213.159 188.573C210.688 189.133 208.082 189.187 205.34 188.736C202.626 188.277 199.935 187.278 197.267 185.738L197.372 185.556C200.767 187.516 203.581 189.683 205.813 192.057C208.062 194.441 209.687 196.926 210.687 199.513C211.705 202.11 212.087 204.79 211.831 207.552C211.603 210.307 210.704 213.044 209.134 215.764C207.164 219.176 204.6 221.818 201.441 223.689C198.309 225.553 194.736 226.642 190.721 226.957C186.733 227.264 182.411 226.789 177.755 225.533C173.11 224.26 168.301 222.188 163.33 219.318C158.065 216.278 153.738 212.972 150.351 209.399C146.98 205.837 144.559 202.072 143.085 198.103C141.63 194.145 141.15 190.035 141.648 185.773C142.163 181.521 143.691 177.195 146.231 172.795L146.306 172.666L164.7 183.286L164.25 184.065C163.31 185.693 162.793 187.369 162.698 189.093C162.631 190.809 162.946 192.503 163.643 194.176C164.35 195.831 165.429 197.424 166.878 198.954C168.355 200.476 170.184 201.867 172.367 203.127C174.48 204.347 176.568 205.229 178.632 205.774C180.696 206.32 182.623 206.543 184.412 206.444C186.211 206.328 187.814 205.891 189.222 205.133C190.639 204.358 191.753 203.269 192.563 201.866C193.803 199.718 193.769 197.597 192.461 195.503C191.153 193.408 188.481 191.196 184.445 188.866L172.053 181.711L180.483 167.11L192.018 173.77C193.508 174.63 194.904 175.251 196.207 175.634C197.528 176.027 198.736 176.193 199.833 176.134C200.94 176.057 201.912 175.752 202.751 175.22C203.616 174.681 204.334 173.917 204.904 172.93C205.644 171.648 205.994 170.303 205.953 168.894C205.922 167.467 205.541 166.047 204.811 164.632C204.108 163.21 203.062 161.821 201.674 160.465C200.303 159.119 198.639 157.881 196.682 156.751C194.707 155.611 192.816 154.808 191.007 154.341C189.215 153.884 187.543 153.761 185.989 153.973C184.452 154.194 183.053 154.737 181.792 155.602C180.547 156.477 179.48 157.686 178.59 159.227L178.29 159.747L159.896 149.127Z" fill="black"/>
</g>
<defs>
<clipPath id="clip0_106_2">
<rect width="341" height="341" fill="white"/>
</clipPath>
</defs>
</svg>
