<svg width="682" height="233" viewBox="0 0 682 233" fill="none" xmlns="http://www.w3.org/2000/svg">
<g clip-path="url(#clip0_97_18)">
<mask id="path-1-outside-1_97_18" maskUnits="userSpaceOnUse" x="87" y="123.573" width="568" height="77" fill="black">
<rect fill="white" x="87" y="123.573" width="568" height="77"/>
<path d="M106.9 161.823C106.9 164.206 107.058 166.398 107.375 168.398C107.708 170.398 108.192 172.206 108.825 173.823C109.458 175.44 110.25 176.865 111.2 178.098C112.15 179.315 113.233 180.331 114.45 181.148C115.683 181.965 117.058 182.581 118.575 182.998C120.092 183.415 121.75 183.623 123.55 183.623C125.683 183.623 127.592 183.306 129.275 182.673C130.975 182.04 132.458 181.09 133.725 179.823C134.992 178.54 136.042 176.948 136.875 175.048C137.725 173.131 138.35 170.89 138.75 168.323H157.075C156.425 173.106 155.175 177.398 153.325 181.198C151.475 184.981 149.1 188.198 146.2 190.848C143.317 193.498 139.958 195.531 136.125 196.948C132.308 198.365 128.108 199.073 123.525 199.073C120.108 199.073 116.858 198.673 113.775 197.873C110.708 197.073 107.867 195.923 105.25 194.423C102.65 192.923 100.3 191.09 98.2 188.923C96.1167 186.74 94.3417 184.273 92.875 181.523C91.4083 178.756 90.275 175.723 89.475 172.423C88.6917 169.123 88.3 165.59 88.3 161.823C88.3 158.056 88.6917 154.523 89.475 151.223C90.275 147.923 91.4083 144.898 92.875 142.148C94.3417 139.381 96.1167 136.915 98.2 134.748C100.3 132.565 102.65 130.723 105.25 129.223C107.867 127.723 110.708 126.573 113.775 125.773C116.858 124.973 120.108 124.573 123.525 124.573C128.108 124.573 132.308 125.281 136.125 126.698C139.958 128.115 143.317 130.148 146.2 132.798C149.1 135.448 151.475 138.673 153.325 142.473C155.175 146.256 156.425 150.54 157.075 155.323H138.75C138.35 152.756 137.725 150.523 136.875 148.623C136.042 146.706 134.992 145.115 133.725 143.848C132.458 142.565 130.975 141.606 129.275 140.973C127.592 140.34 125.683 140.023 123.55 140.023C121.75 140.023 120.092 140.231 118.575 140.648C117.058 141.065 115.683 141.681 114.45 142.498C113.233 143.315 112.15 144.34 111.2 145.573C110.25 146.79 109.458 148.206 108.825 149.823C108.192 151.44 107.708 153.248 107.375 155.248C107.058 157.248 106.9 159.44 106.9 161.823ZM230.085 126.073V197.573H211.635V168.223L212.435 169.623H184.935L186.035 168.223V197.573H167.585V126.073H186.035V155.623L184.935 154.173H212.435L211.635 155.623V126.073H230.085ZM257.04 197.573H237.765L261.415 126.073H286.765L310.065 197.573H290.39L272.515 132.123H275.24L257.04 197.573ZM253.115 182.948V168.348H297.015V182.948H253.115ZM384.295 126.073V197.573H359.195L335.295 143.673L335.42 143.648V197.573H317.82V126.073H344.42L366.82 176.223L366.695 176.273V126.073H384.295ZM461.853 126.073V197.573H436.753L412.853 143.673L412.978 143.648V197.573H395.378V126.073H421.978L444.378 176.223L444.253 176.273V126.073H461.853ZM472.937 126.073H522.887V141.373H490.187L491.387 140.123V155.998L490.187 154.748H520.037V168.998H490.187L491.387 167.748V183.523L490.187 182.273H523.737V197.573H472.937V126.073ZM533.308 126.073H551.758V183.523L550.558 182.273H582.108V197.573H533.308V126.073ZM590.683 149.848V149.723C590.683 145.706 591.349 142.14 592.683 139.023C594.016 135.89 595.958 133.256 598.508 131.123C601.074 128.973 604.224 127.348 607.958 126.248C611.691 125.131 615.966 124.573 620.783 124.573C625.266 124.573 629.333 125.048 632.983 125.998C636.649 126.931 639.783 128.265 642.383 129.998C644.983 131.731 646.991 133.823 648.408 136.273C649.824 138.723 650.533 141.44 650.533 144.423C650.533 146.806 650.091 148.99 649.208 150.973C648.324 152.956 647.108 154.673 645.558 156.123C644.008 157.556 642.149 158.681 639.983 159.498C637.833 160.298 635.474 160.698 632.908 160.698V160.523C636.174 160.523 639.108 160.915 641.708 161.698C644.324 162.481 646.533 163.598 648.333 165.048C650.149 166.498 651.541 168.273 652.508 170.373C653.491 172.456 653.983 174.806 653.983 177.423C653.983 180.706 653.233 183.681 651.733 186.348C650.249 188.998 648.124 191.273 645.358 193.173C642.608 195.056 639.291 196.515 635.408 197.548C631.524 198.565 627.191 199.073 622.408 199.073C617.341 199.073 612.841 198.49 608.908 197.323C604.991 196.156 601.674 194.448 598.958 192.198C596.258 189.948 594.199 187.181 592.783 183.898C591.383 180.615 590.683 176.856 590.683 172.623V172.498H608.383V173.248C608.383 174.815 608.708 176.24 609.358 177.523C610.024 178.79 610.958 179.881 612.158 180.798C613.358 181.698 614.799 182.398 616.483 182.898C618.183 183.381 620.083 183.623 622.183 183.623C624.216 183.623 626.091 183.39 627.808 182.923C629.524 182.456 631.008 181.815 632.258 180.998C633.508 180.165 634.483 179.181 635.183 178.048C635.883 176.898 636.233 175.648 636.233 174.298C636.233 172.231 635.324 170.715 633.508 169.748C631.691 168.781 628.841 168.298 624.958 168.298H613.033V154.248H624.133C625.566 154.248 626.833 154.115 627.933 153.848C629.049 153.581 629.991 153.198 630.758 152.698C631.524 152.181 632.099 151.556 632.483 150.823C632.883 150.073 633.083 149.223 633.083 148.273C633.083 147.04 632.774 145.923 632.158 144.923C631.541 143.906 630.674 143.04 629.558 142.323C628.458 141.59 627.124 141.023 625.558 140.623C624.008 140.223 622.291 140.023 620.408 140.023C618.508 140.023 616.808 140.231 615.308 140.648C613.824 141.065 612.566 141.673 611.533 142.473C610.516 143.273 609.733 144.248 609.183 145.398C608.649 146.548 608.383 147.865 608.383 149.348V149.848H590.683Z"/>
</mask>
<path d="M106.9 161.823C106.9 164.206 107.058 166.398 107.375 168.398C107.708 170.398 108.192 172.206 108.825 173.823C109.458 175.44 110.25 176.865 111.2 178.098C112.15 179.315 113.233 180.331 114.45 181.148C115.683 181.965 117.058 182.581 118.575 182.998C120.092 183.415 121.75 183.623 123.55 183.623C125.683 183.623 127.592 183.306 129.275 182.673C130.975 182.04 132.458 181.09 133.725 179.823C134.992 178.54 136.042 176.948 136.875 175.048C137.725 173.131 138.35 170.89 138.75 168.323H157.075C156.425 173.106 155.175 177.398 153.325 181.198C151.475 184.981 149.1 188.198 146.2 190.848C143.317 193.498 139.958 195.531 136.125 196.948C132.308 198.365 128.108 199.073 123.525 199.073C120.108 199.073 116.858 198.673 113.775 197.873C110.708 197.073 107.867 195.923 105.25 194.423C102.65 192.923 100.3 191.09 98.2 188.923C96.1167 186.74 94.3417 184.273 92.875 181.523C91.4083 178.756 90.275 175.723 89.475 172.423C88.6917 169.123 88.3 165.59 88.3 161.823C88.3 158.056 88.6917 154.523 89.475 151.223C90.275 147.923 91.4083 144.898 92.875 142.148C94.3417 139.381 96.1167 136.915 98.2 134.748C100.3 132.565 102.65 130.723 105.25 129.223C107.867 127.723 110.708 126.573 113.775 125.773C116.858 124.973 120.108 124.573 123.525 124.573C128.108 124.573 132.308 125.281 136.125 126.698C139.958 128.115 143.317 130.148 146.2 132.798C149.1 135.448 151.475 138.673 153.325 142.473C155.175 146.256 156.425 150.54 157.075 155.323H138.75C138.35 152.756 137.725 150.523 136.875 148.623C136.042 146.706 134.992 145.115 133.725 143.848C132.458 142.565 130.975 141.606 129.275 140.973C127.592 140.34 125.683 140.023 123.55 140.023C121.75 140.023 120.092 140.231 118.575 140.648C117.058 141.065 115.683 141.681 114.45 142.498C113.233 143.315 112.15 144.34 111.2 145.573C110.25 146.79 109.458 148.206 108.825 149.823C108.192 151.44 107.708 153.248 107.375 155.248C107.058 157.248 106.9 159.44 106.9 161.823ZM230.085 126.073V197.573H211.635V168.223L212.435 169.623H184.935L186.035 168.223V197.573H167.585V126.073H186.035V155.623L184.935 154.173H212.435L211.635 155.623V126.073H230.085ZM257.04 197.573H237.765L261.415 126.073H286.765L310.065 197.573H290.39L272.515 132.123H275.24L257.04 197.573ZM253.115 182.948V168.348H297.015V182.948H253.115ZM384.295 126.073V197.573H359.195L335.295 143.673L335.42 143.648V197.573H317.82V126.073H344.42L366.82 176.223L366.695 176.273V126.073H384.295ZM461.853 126.073V197.573H436.753L412.853 143.673L412.978 143.648V197.573H395.378V126.073H421.978L444.378 176.223L444.253 176.273V126.073H461.853ZM472.937 126.073H522.887V141.373H490.187L491.387 140.123V155.998L490.187 154.748H520.037V168.998H490.187L491.387 167.748V183.523L490.187 182.273H523.737V197.573H472.937V126.073ZM533.308 126.073H551.758V183.523L550.558 182.273H582.108V197.573H533.308V126.073ZM590.683 149.848V149.723C590.683 145.706 591.349 142.14 592.683 139.023C594.016 135.89 595.958 133.256 598.508 131.123C601.074 128.973 604.224 127.348 607.958 126.248C611.691 125.131 615.966 124.573 620.783 124.573C625.266 124.573 629.333 125.048 632.983 125.998C636.649 126.931 639.783 128.265 642.383 129.998C644.983 131.731 646.991 133.823 648.408 136.273C649.824 138.723 650.533 141.44 650.533 144.423C650.533 146.806 650.091 148.99 649.208 150.973C648.324 152.956 647.108 154.673 645.558 156.123C644.008 157.556 642.149 158.681 639.983 159.498C637.833 160.298 635.474 160.698 632.908 160.698V160.523C636.174 160.523 639.108 160.915 641.708 161.698C644.324 162.481 646.533 163.598 648.333 165.048C650.149 166.498 651.541 168.273 652.508 170.373C653.491 172.456 653.983 174.806 653.983 177.423C653.983 180.706 653.233 183.681 651.733 186.348C650.249 188.998 648.124 191.273 645.358 193.173C642.608 195.056 639.291 196.515 635.408 197.548C631.524 198.565 627.191 199.073 622.408 199.073C617.341 199.073 612.841 198.49 608.908 197.323C604.991 196.156 601.674 194.448 598.958 192.198C596.258 189.948 594.199 187.181 592.783 183.898C591.383 180.615 590.683 176.856 590.683 172.623V172.498H608.383V173.248C608.383 174.815 608.708 176.24 609.358 177.523C610.024 178.79 610.958 179.881 612.158 180.798C613.358 181.698 614.799 182.398 616.483 182.898C618.183 183.381 620.083 183.623 622.183 183.623C624.216 183.623 626.091 183.39 627.808 182.923C629.524 182.456 631.008 181.815 632.258 180.998C633.508 180.165 634.483 179.181 635.183 178.048C635.883 176.898 636.233 175.648 636.233 174.298C636.233 172.231 635.324 170.715 633.508 169.748C631.691 168.781 628.841 168.298 624.958 168.298H613.033V154.248H624.133C625.566 154.248 626.833 154.115 627.933 153.848C629.049 153.581 629.991 153.198 630.758 152.698C631.524 152.181 632.099 151.556 632.483 150.823C632.883 150.073 633.083 149.223 633.083 148.273C633.083 147.04 632.774 145.923 632.158 144.923C631.541 143.906 630.674 143.04 629.558 142.323C628.458 141.59 627.124 141.023 625.558 140.623C624.008 140.223 622.291 140.023 620.408 140.023C618.508 140.023 616.808 140.231 615.308 140.648C613.824 141.065 612.566 141.673 611.533 142.473C610.516 143.273 609.733 144.248 609.183 145.398C608.649 146.548 608.383 147.865 608.383 149.348V149.848H590.683Z" fill="white"/>
<path d="M107.375 168.398L106.387 168.554L106.389 168.562L107.375 168.398ZM108.825 173.823L107.894 174.188L108.825 173.823ZM111.2 178.098L110.408 178.708L110.412 178.713L111.2 178.098ZM114.45 181.148L113.893 181.978L113.898 181.982L114.45 181.148ZM118.575 182.998L118.31 183.962L118.575 182.998ZM129.275 182.673L128.926 181.736L128.923 181.737L129.275 182.673ZM133.725 179.823L134.432 180.53L134.437 180.525L133.725 179.823ZM136.875 175.048L135.961 174.643L135.959 174.646L136.875 175.048ZM138.75 168.323V167.323H137.894L137.762 168.169L138.75 168.323ZM157.075 168.323L158.066 168.458L158.22 167.323H157.075V168.323ZM153.325 181.198L154.223 181.637L154.224 181.636L153.325 181.198ZM146.2 190.848L145.525 190.11L145.523 190.112L146.2 190.848ZM136.125 196.948L135.778 196.01L135.777 196.01L136.125 196.948ZM113.775 197.873L113.523 198.841L113.524 198.841L113.775 197.873ZM105.25 194.423L104.75 195.289L104.753 195.291L105.25 194.423ZM98.2 188.923L97.4765 189.613L97.4819 189.619L98.2 188.923ZM92.875 181.523L91.9915 181.991L91.9926 181.994L92.875 181.523ZM89.475 172.423L88.502 172.654L88.5032 172.659L89.475 172.423ZM89.475 151.223L88.5031 150.987L88.502 150.992L89.475 151.223ZM92.875 142.148L93.7574 142.619L93.7585 142.616L92.875 142.148ZM98.2 134.748L97.4793 134.055L97.4792 134.055L98.2 134.748ZM105.25 129.223L104.753 128.355L104.75 128.357L105.25 129.223ZM113.775 125.773L113.524 124.805L113.523 124.805L113.775 125.773ZM136.125 126.698L135.777 127.635L135.778 127.636L136.125 126.698ZM146.2 132.798L145.523 133.534L145.525 133.536L146.2 132.798ZM153.325 142.473L152.426 142.911L152.427 142.912L153.325 142.473ZM157.075 155.323V156.323H158.22L158.066 155.188L157.075 155.323ZM138.75 155.323L137.762 155.477L137.894 156.323H138.75V155.323ZM136.875 148.623L135.958 149.022L135.962 149.031L136.875 148.623ZM133.725 143.848L133.013 144.55L133.018 144.555L133.725 143.848ZM129.275 140.973L128.923 141.909L128.926 141.91L129.275 140.973ZM118.575 140.648L118.31 139.684L118.575 140.648ZM114.45 142.498L113.898 141.664L113.893 141.668L114.45 142.498ZM111.2 145.573L111.988 146.188L111.992 146.183L111.2 145.573ZM108.825 149.823L109.756 150.188L108.825 149.823ZM107.375 155.248L106.389 155.084L106.387 155.092L107.375 155.248ZM106.9 161.823H105.9C105.9 164.25 106.061 166.495 106.387 168.554L107.375 168.398L108.363 168.242C108.056 166.301 107.9 164.163 107.9 161.823H106.9ZM107.375 168.398L106.389 168.562C106.732 170.62 107.231 172.497 107.894 174.188L108.825 173.823L109.756 173.458C109.152 171.916 108.685 170.176 108.361 168.234L107.375 168.398ZM108.825 173.823L107.894 174.188C108.558 175.882 109.394 177.392 110.408 178.708L111.2 178.098L111.992 177.488C111.106 176.337 110.359 174.997 109.756 173.458L108.825 173.823ZM111.2 178.098L110.412 178.713C111.423 180.009 112.584 181.1 113.893 181.978L114.45 181.148L115.007 180.318C113.883 179.563 112.877 178.62 111.988 177.483L111.2 178.098ZM114.45 181.148L113.898 181.982C115.225 182.86 116.698 183.519 118.31 183.962L118.575 182.998L118.84 182.034C117.419 181.643 116.142 181.069 115.002 180.314L114.45 181.148ZM118.575 182.998L118.31 183.962C119.924 184.406 121.673 184.623 123.55 184.623V183.623V182.623C121.827 182.623 120.259 182.424 118.84 182.034L118.575 182.998ZM123.55 183.623V184.623C125.782 184.623 127.812 184.292 129.627 183.609L129.275 182.673L128.923 181.737C127.371 182.321 125.585 182.623 123.55 182.623V183.623ZM129.275 182.673L129.624 183.61C131.457 182.927 133.063 181.9 134.432 180.53L133.725 179.823L133.018 179.116C131.854 180.28 130.493 181.152 128.926 181.736L129.275 182.673ZM133.725 179.823L134.437 180.525C135.801 179.143 136.916 177.445 137.791 175.45L136.875 175.048L135.959 174.646C135.168 176.451 134.182 177.936 133.013 179.121L133.725 179.823ZM136.875 175.048L137.789 175.453C138.682 173.44 139.328 171.111 139.738 168.477L138.75 168.323L137.762 168.169C137.372 170.669 136.768 172.823 135.961 174.643L136.875 175.048ZM138.75 168.323V169.323H157.075V168.323V167.323H138.75V168.323ZM157.075 168.323L156.084 168.188C155.446 172.881 154.223 177.068 152.426 180.76L153.325 181.198L154.224 181.636C156.127 177.728 157.404 173.332 158.066 168.458L157.075 168.323ZM153.325 181.198L152.427 180.759C150.628 184.437 148.326 187.55 145.525 190.11L146.2 190.848L146.875 191.586C149.874 188.846 152.322 185.525 154.223 181.637L153.325 181.198ZM146.2 190.848L145.523 190.112C142.74 192.67 139.495 194.636 135.778 196.01L136.125 196.948L136.472 197.886C140.422 196.426 143.893 194.326 146.877 191.584L146.2 190.848ZM136.125 196.948L135.777 196.01C132.085 197.381 128.004 198.073 123.525 198.073V199.073V200.073C128.212 200.073 132.532 199.348 136.473 197.885L136.125 196.948ZM123.525 199.073V198.073C120.187 198.073 117.022 197.682 114.026 196.905L113.775 197.873L113.524 198.841C116.695 199.664 120.03 200.073 123.525 200.073V199.073ZM113.775 197.873L114.027 196.905C111.042 196.127 108.283 195.009 105.747 193.555L105.25 194.423L104.753 195.291C107.45 196.837 110.375 198.019 113.523 198.841L113.775 197.873ZM105.25 194.423L105.75 193.557C103.23 192.103 100.954 190.327 98.9181 188.227L98.2 188.923L97.4819 189.619C99.6461 191.852 102.07 193.743 104.75 195.289L105.25 194.423ZM98.2 188.923L98.9235 188.233C96.9049 186.117 95.1827 183.725 93.7574 181.052L92.875 181.523L91.9926 181.994C93.5006 184.821 95.3285 187.362 97.4765 189.613L98.2 188.923ZM92.875 181.523L93.7585 181.055C92.334 178.367 91.2289 175.413 90.4469 172.187L89.475 172.423L88.5032 172.659C89.3211 176.033 90.4827 179.145 91.9915 181.991L92.875 181.523ZM89.475 172.423L90.448 172.192C89.6844 168.976 89.3 165.52 89.3 161.823H88.3H87.3C87.3 165.659 87.6989 169.27 88.502 172.654L89.475 172.423ZM88.3 161.823H89.3C89.3 158.126 89.6844 154.67 90.448 151.454L89.475 151.223L88.502 150.992C87.6989 154.376 87.3 157.987 87.3 161.823H88.3ZM89.475 151.223L90.4469 151.459C91.2288 148.233 92.3336 145.288 93.7574 142.619L92.875 142.148L91.9926 141.677C90.483 144.508 89.3212 147.613 88.5032 150.987L89.475 151.223ZM92.875 142.148L93.7585 142.616C95.1835 139.928 96.9046 137.538 98.9208 135.441L98.2 134.748L97.4792 134.055C95.3288 136.291 93.4998 138.834 91.9915 141.68L92.875 142.148ZM98.2 134.748L98.9207 135.441C100.956 133.325 103.232 131.542 105.75 130.089L105.25 129.223L104.75 128.357C102.068 129.904 99.6438 131.804 97.4793 134.055L98.2 134.748ZM105.25 129.223L105.747 130.091C108.283 128.637 111.042 127.519 114.027 126.741L113.775 125.773L113.523 124.805C110.375 125.627 107.45 126.809 104.753 128.355L105.25 129.223ZM113.775 125.773L114.026 126.741C117.022 125.964 120.187 125.573 123.525 125.573V124.573V123.573C120.03 123.573 116.695 123.982 113.524 124.805L113.775 125.773ZM123.525 124.573V125.573C128.004 125.573 132.085 126.265 135.777 127.635L136.125 126.698L136.473 125.76C132.532 124.298 128.212 123.573 123.525 123.573V124.573ZM136.125 126.698L135.778 127.636C139.495 129.01 142.74 130.976 145.523 133.534L146.2 132.798L146.877 132.062C143.893 129.32 140.422 127.22 136.472 125.76L136.125 126.698ZM146.2 132.798L145.525 133.536C148.325 136.095 150.627 139.215 152.426 142.911L153.325 142.473L154.224 142.035C152.323 138.131 149.875 134.801 146.875 132.06L146.2 132.798ZM153.325 142.473L152.427 142.912C154.223 146.587 155.446 150.765 156.084 155.458L157.075 155.323L158.066 155.188C157.404 150.314 156.127 145.926 154.223 142.034L153.325 142.473ZM157.075 155.323V154.323H138.75V155.323V156.323H157.075V155.323ZM138.75 155.323L139.738 155.169C139.328 152.535 138.682 150.213 137.788 148.215L136.875 148.623L135.962 149.031C136.768 150.833 137.372 152.977 137.762 155.477L138.75 155.323ZM136.875 148.623L137.792 148.224C136.917 146.211 135.801 144.51 134.432 143.141L133.725 143.848L133.018 144.555C134.182 145.72 135.166 147.201 135.958 149.022L136.875 148.623ZM133.725 143.848L134.437 143.146C133.067 141.758 131.46 140.72 129.624 140.036L129.275 140.973L128.926 141.91C130.49 142.493 131.85 143.371 133.013 144.55L133.725 143.848ZM129.275 140.973L129.627 140.037C127.812 139.354 125.782 139.023 123.55 139.023V140.023V141.023C125.585 141.023 127.371 141.325 128.923 141.909L129.275 140.973ZM123.55 140.023V139.023C121.673 139.023 119.924 139.24 118.31 139.684L118.575 140.648L118.84 141.612C120.259 141.222 121.827 141.023 123.55 141.023V140.023ZM118.575 140.648L118.31 139.684C116.698 140.127 115.225 140.786 113.898 141.664L114.45 142.498L115.002 143.332C116.142 142.577 117.419 142.003 118.84 141.612L118.575 140.648ZM114.45 142.498L113.893 141.668C112.581 142.548 111.42 143.649 110.408 144.963L111.2 145.573L111.992 146.183C112.88 145.03 113.886 144.081 115.007 143.328L114.45 142.498ZM111.2 145.573L110.412 144.958C109.395 146.259 108.558 147.763 107.894 149.458L108.825 149.823L109.756 150.188C110.358 148.65 111.105 147.32 111.988 146.188L111.2 145.573ZM108.825 149.823L107.894 149.458C107.231 151.149 106.732 153.026 106.389 155.084L107.375 155.248L108.361 155.412C108.685 153.47 109.152 151.73 109.756 150.188L108.825 149.823ZM107.375 155.248L106.387 155.092C106.061 157.151 105.9 159.396 105.9 161.823H106.9H107.9C107.9 159.483 108.056 157.345 108.363 155.404L107.375 155.248ZM230.085 126.073H231.085V125.073H230.085V126.073ZM230.085 197.573V198.573H231.085V197.573H230.085ZM211.635 197.573H210.635V198.573H211.635V197.573ZM211.635 168.223L212.503 167.727L210.635 164.457V168.223H211.635ZM212.435 169.623V170.623H214.158L213.303 169.127L212.435 169.623ZM184.935 169.623L184.149 169.005L182.878 170.623H184.935V169.623ZM186.035 168.223H187.035V165.332L185.249 167.605L186.035 168.223ZM186.035 197.573V198.573H187.035V197.573H186.035ZM167.585 197.573H166.585V198.573H167.585V197.573ZM167.585 126.073V125.073H166.585V126.073H167.585ZM186.035 126.073H187.035V125.073H186.035V126.073ZM186.035 155.623L185.238 156.227L187.035 158.596V155.623H186.035ZM184.935 154.173V153.173H182.921L184.138 154.777L184.935 154.173ZM212.435 154.173L213.311 154.656L214.129 153.173H212.435V154.173ZM211.635 155.623H210.635L212.511 156.106L211.635 155.623ZM211.635 126.073V125.073H210.635V126.073H211.635ZM230.085 126.073H229.085V197.573H230.085H231.085V126.073H230.085ZM230.085 197.573V196.573H211.635V197.573V198.573H230.085V197.573ZM211.635 197.573H212.635V168.223H211.635H210.635V197.573H211.635ZM211.635 168.223L210.767 168.719L211.567 170.119L212.435 169.623L213.303 169.127L212.503 167.727L211.635 168.223ZM212.435 169.623V168.623H184.935V169.623V170.623H212.435V169.623ZM184.935 169.623L185.721 170.241L186.821 168.841L186.035 168.223L185.249 167.605L184.149 169.005L184.935 169.623ZM186.035 168.223H185.035V197.573H186.035H187.035V168.223H186.035ZM186.035 197.573V196.573H167.585V197.573V198.573H186.035V197.573ZM167.585 197.573H168.585V126.073H167.585H166.585V197.573H167.585ZM167.585 126.073V127.073H186.035V126.073V125.073H167.585V126.073ZM186.035 126.073H185.035V155.623H186.035H187.035V126.073H186.035ZM186.035 155.623L186.832 155.019L185.732 153.569L184.935 154.173L184.138 154.777L185.238 156.227L186.035 155.623ZM184.935 154.173V155.173H212.435V154.173V153.173H184.935V154.173ZM212.435 154.173L211.56 153.69L210.76 155.14L211.635 155.623L212.511 156.106L213.311 154.656L212.435 154.173ZM211.635 155.623H212.635V126.073H211.635H210.635V155.623H211.635ZM211.635 126.073V127.073H230.085V126.073V125.073H211.635V126.073ZM257.04 197.573V198.573H257.8L258.003 197.841L257.04 197.573ZM237.765 197.573L236.815 197.259L236.381 198.573H237.765V197.573ZM261.415 126.073V125.073H260.692L260.465 125.759L261.415 126.073ZM286.765 126.073L287.716 125.763L287.491 125.073H286.765V126.073ZM310.065 197.573V198.573H311.442L311.016 197.263L310.065 197.573ZM290.39 197.573L289.425 197.836L289.626 198.573H290.39V197.573ZM272.515 132.123V131.123H271.205L271.55 132.386L272.515 132.123ZM275.24 132.123L276.203 132.391L276.556 131.123H275.24V132.123ZM253.115 182.948H252.115V183.948H253.115V182.948ZM253.115 168.348V167.348H252.115V168.348H253.115ZM297.015 168.348H298.015V167.348H297.015V168.348ZM297.015 182.948V183.948H298.015V182.948H297.015ZM257.04 197.573V196.573H237.765V197.573V198.573H257.04V197.573ZM237.765 197.573L238.714 197.887L262.364 126.387L261.415 126.073L260.465 125.759L236.815 197.259L237.765 197.573ZM261.415 126.073V127.073H286.765V126.073V125.073H261.415V126.073ZM286.765 126.073L285.814 126.383L309.114 197.883L310.065 197.573L311.016 197.263L287.716 125.763L286.765 126.073ZM310.065 197.573V196.573H290.39V197.573V198.573H310.065V197.573ZM290.39 197.573L291.355 197.31L273.48 131.86L272.515 132.123L271.55 132.386L289.425 197.836L290.39 197.573ZM272.515 132.123V133.123H275.24V132.123V131.123H272.515V132.123ZM275.24 132.123L274.276 131.855L256.076 197.305L257.04 197.573L258.003 197.841L276.203 132.391L275.24 132.123ZM253.115 182.948H254.115V168.348H253.115H252.115V182.948H253.115ZM253.115 168.348V169.348H297.015V168.348V167.348H253.115V168.348ZM297.015 168.348H296.015V182.948H297.015H298.015V168.348H297.015ZM297.015 182.948V181.948H253.115V182.948V183.948H297.015V182.948ZM384.295 126.073H385.295V125.073H384.295V126.073ZM384.295 197.573V198.573H385.295V197.573H384.295ZM359.195 197.573L358.28 197.978L358.544 198.573H359.195V197.573ZM335.295 143.673L335.098 142.692L333.874 142.937L334.38 144.078L335.295 143.673ZM335.42 143.648H336.42V142.428L335.223 142.667L335.42 143.648ZM335.42 197.573V198.573H336.42V197.573H335.42ZM317.82 197.573H316.82V198.573H317.82V197.573ZM317.82 126.073V125.073H316.82V126.073H317.82ZM344.42 126.073L345.333 125.665L345.068 125.073H344.42V126.073ZM366.82 176.223L367.191 177.151L368.157 176.765L367.733 175.815L366.82 176.223ZM366.695 176.273H365.695V177.75L367.066 177.201L366.695 176.273ZM366.695 126.073V125.073H365.695V126.073H366.695ZM384.295 126.073H383.295V197.573H384.295H385.295V126.073H384.295ZM384.295 197.573V196.573H359.195V197.573V198.573H384.295V197.573ZM359.195 197.573L360.109 197.168L336.209 143.268L335.295 143.673L334.38 144.078L358.28 197.978L359.195 197.573ZM335.295 143.673L335.491 144.654L335.616 144.629L335.42 143.648L335.223 142.667L335.098 142.692L335.295 143.673ZM335.42 143.648H334.42V197.573H335.42H336.42V143.648H335.42ZM335.42 197.573V196.573H317.82V197.573V198.573H335.42V197.573ZM317.82 197.573H318.82V126.073H317.82H316.82V197.573H317.82ZM317.82 126.073V127.073H344.42V126.073V125.073H317.82V126.073ZM344.42 126.073L343.506 126.481L365.906 176.631L366.82 176.223L367.733 175.815L345.333 125.665L344.42 126.073ZM366.82 176.223L366.448 175.295L366.323 175.345L366.695 176.273L367.066 177.201L367.191 177.151L366.82 176.223ZM366.695 176.273H367.695V126.073H366.695H365.695V176.273H366.695ZM366.695 126.073V127.073H384.295V126.073V125.073H366.695V126.073ZM461.853 126.073H462.853V125.073H461.853V126.073ZM461.853 197.573V198.573H462.853V197.573H461.853ZM436.753 197.573L435.839 197.978L436.103 198.573H436.753V197.573ZM412.853 143.673L412.657 142.692L411.433 142.937L411.939 144.078L412.853 143.673ZM412.978 143.648H413.978V142.428L412.782 142.667L412.978 143.648ZM412.978 197.573V198.573H413.978V197.573H412.978ZM395.378 197.573H394.378V198.573H395.378V197.573ZM395.378 126.073V125.073H394.378V126.073H395.378ZM421.978 126.073L422.891 125.665L422.627 125.073H421.978V126.073ZM444.378 176.223L444.75 177.151L445.715 176.765L445.291 175.815L444.378 176.223ZM444.253 176.273H443.253V177.75L444.625 177.201L444.253 176.273ZM444.253 126.073V125.073H443.253V126.073H444.253ZM461.853 126.073H460.853V197.573H461.853H462.853V126.073H461.853ZM461.853 197.573V196.573H436.753V197.573V198.573H461.853V197.573ZM436.753 197.573L437.667 197.168L413.767 143.268L412.853 143.673L411.939 144.078L435.839 197.978L436.753 197.573ZM412.853 143.673L413.049 144.654L413.174 144.629L412.978 143.648L412.782 142.667L412.657 142.692L412.853 143.673ZM412.978 143.648H411.978V197.573H412.978H413.978V143.648H412.978ZM412.978 197.573V196.573H395.378V197.573V198.573H412.978V197.573ZM395.378 197.573H396.378V126.073H395.378H394.378V197.573H395.378ZM395.378 126.073V127.073H421.978V126.073V125.073H395.378V126.073ZM421.978 126.073L421.065 126.481L443.465 176.631L444.378 176.223L445.291 175.815L422.891 125.665L421.978 126.073ZM444.378 176.223L444.007 175.295L443.882 175.345L444.253 176.273L444.625 177.201L444.75 177.151L444.378 176.223ZM444.253 176.273H445.253V126.073H444.253H443.253V176.273H444.253ZM444.253 126.073V127.073H461.853V126.073V125.073H444.253V126.073ZM472.937 126.073V125.073H471.937V126.073H472.937ZM522.887 126.073H523.887V125.073H522.887V126.073ZM522.887 141.373V142.373H523.887V141.373H522.887ZM490.187 141.373L489.465 140.68L487.841 142.373H490.187V141.373ZM491.387 140.123H492.387V137.637L490.665 139.43L491.387 140.123ZM491.387 155.998L490.665 156.691L492.387 158.484V155.998H491.387ZM490.187 154.748V153.748H487.841L489.465 155.441L490.187 154.748ZM520.037 154.748H521.037V153.748H520.037V154.748ZM520.037 168.998V169.998H521.037V168.998H520.037ZM490.187 168.998L489.465 168.305L487.841 169.998H490.187V168.998ZM491.387 167.748H492.387V165.262L490.665 167.055L491.387 167.748ZM491.387 183.523L490.665 184.216L492.387 186.009V183.523H491.387ZM490.187 182.273V181.273H487.841L489.465 182.966L490.187 182.273ZM523.737 182.273H524.737V181.273H523.737V182.273ZM523.737 197.573V198.573H524.737V197.573H523.737ZM472.937 197.573H471.937V198.573H472.937V197.573ZM472.937 126.073V127.073H522.887V126.073V125.073H472.937V126.073ZM522.887 126.073H521.887V141.373H522.887H523.887V126.073H522.887ZM522.887 141.373V140.373H490.187V141.373V142.373H522.887V141.373ZM490.187 141.373L490.908 142.066L492.108 140.816L491.387 140.123L490.665 139.43L489.465 140.68L490.187 141.373ZM491.387 140.123H490.387V155.998H491.387H492.387V140.123H491.387ZM491.387 155.998L492.108 155.305L490.908 154.055L490.187 154.748L489.465 155.441L490.665 156.691L491.387 155.998ZM490.187 154.748V155.748H520.037V154.748V153.748H490.187V154.748ZM520.037 154.748H519.037V168.998H520.037H521.037V154.748H520.037ZM520.037 168.998V167.998H490.187V168.998V169.998H520.037V168.998ZM490.187 168.998L490.908 169.691L492.108 168.441L491.387 167.748L490.665 167.055L489.465 168.305L490.187 168.998ZM491.387 167.748H490.387V183.523H491.387H492.387V167.748H491.387ZM491.387 183.523L492.108 182.83L490.908 181.58L490.187 182.273L489.465 182.966L490.665 184.216L491.387 183.523ZM490.187 182.273V183.273H523.737V182.273V181.273H490.187V182.273ZM523.737 182.273H522.737V197.573H523.737H524.737V182.273H523.737ZM523.737 197.573V196.573H472.937V197.573V198.573H523.737V197.573ZM472.937 197.573H473.937V126.073H472.937H471.937V197.573H472.937ZM533.308 126.073V125.073H532.308V126.073H533.308ZM551.758 126.073H552.758V125.073H551.758V126.073ZM551.758 183.523L551.036 184.216L552.758 186.009V183.523H551.758ZM550.558 182.273V181.273H548.212L549.836 182.966L550.558 182.273ZM582.108 182.273H583.108V181.273H582.108V182.273ZM582.108 197.573V198.573H583.108V197.573H582.108ZM533.308 197.573H532.308V198.573H533.308V197.573ZM533.308 126.073V127.073H551.758V126.073V125.073H533.308V126.073ZM551.758 126.073H550.758V183.523H551.758H552.758V126.073H551.758ZM551.758 183.523L552.479 182.83L551.279 181.58L550.558 182.273L549.836 182.966L551.036 184.216L551.758 183.523ZM550.558 182.273V183.273H582.108V182.273V181.273H550.558V182.273ZM582.108 182.273H581.108V197.573H582.108H583.108V182.273H582.108ZM582.108 197.573V196.573H533.308V197.573V198.573H582.108V197.573ZM533.308 197.573H534.308V126.073H533.308H532.308V197.573H533.308ZM590.683 149.848H589.683V150.848H590.683V149.848ZM592.683 139.023L593.602 139.416L593.603 139.415L592.683 139.023ZM598.508 131.123L599.149 131.89L599.15 131.89L598.508 131.123ZM607.958 126.248L608.24 127.207L608.244 127.206L607.958 126.248ZM632.983 125.998L632.731 126.966L632.736 126.967L632.983 125.998ZM642.383 129.998L641.828 130.83V130.83L642.383 129.998ZM648.408 136.273L647.542 136.774V136.774L648.408 136.273ZM645.558 156.123L646.237 156.857L646.241 156.853L645.558 156.123ZM639.983 159.498L640.332 160.435L640.336 160.434L639.983 159.498ZM632.908 160.698H631.908V161.698H632.908V160.698ZM632.908 160.523V159.523H631.908V160.523H632.908ZM641.708 161.698L641.419 162.655L641.421 162.656L641.708 161.698ZM648.333 165.048L647.706 165.827L647.709 165.83L648.333 165.048ZM652.508 170.373L651.599 170.791L651.604 170.8L652.508 170.373ZM651.733 186.348L650.861 185.858L650.86 185.86L651.733 186.348ZM645.358 193.173L645.923 193.998L645.924 193.997L645.358 193.173ZM635.408 197.548L635.661 198.515L635.665 198.514L635.408 197.548ZM608.908 197.323L608.622 198.281L608.623 198.282L608.908 197.323ZM598.958 192.198L598.318 192.966L598.32 192.968L598.958 192.198ZM592.783 183.898L591.863 184.29L591.865 184.294L592.783 183.898ZM590.683 172.498V171.498H589.683V172.498H590.683ZM608.383 172.498H609.383V171.498H608.383V172.498ZM609.358 177.523L608.466 177.975L608.469 177.982L608.473 177.989L609.358 177.523ZM612.158 180.798L611.551 181.593L611.558 181.598L612.158 180.798ZM616.483 182.898L616.198 183.857L616.209 183.86L616.483 182.898ZM627.808 182.923L627.545 181.958L627.808 182.923ZM632.258 180.998L632.805 181.835L632.812 181.83L632.258 180.998ZM635.183 178.048L636.034 178.574L636.037 178.568L635.183 178.048ZM613.033 168.298H612.033V169.298H613.033V168.298ZM613.033 154.248V153.248H612.033V154.248H613.033ZM627.933 153.848L627.701 152.875L627.697 152.876L627.933 153.848ZM630.758 152.698L631.304 153.536L631.31 153.531L631.317 153.527L630.758 152.698ZM632.483 150.823L631.6 150.352L631.597 150.36L632.483 150.823ZM632.158 144.923L631.303 145.442L631.307 145.448L632.158 144.923ZM629.558 142.323L629.003 143.155L629.01 143.16L629.018 143.165L629.558 142.323ZM625.558 140.623L625.308 141.591L625.31 141.592L625.558 140.623ZM615.308 140.648L615.04 139.684L615.037 139.685L615.308 140.648ZM611.533 142.473L610.921 141.682L610.914 141.687L611.533 142.473ZM609.183 145.398L608.281 144.967L608.276 144.977L609.183 145.398ZM608.383 149.848V150.848H609.383V149.848H608.383ZM590.683 149.848H591.683V149.723H590.683H589.683V149.848H590.683ZM590.683 149.723H591.683C591.683 145.817 592.331 142.388 593.602 139.416L592.683 139.023L591.763 138.63C590.368 141.891 589.683 145.596 589.683 149.723H590.683ZM592.683 139.023L593.603 139.415C594.876 136.423 596.724 133.919 599.149 131.89L598.508 131.123L597.866 130.356C595.192 132.593 593.156 135.356 591.763 138.631L592.683 139.023ZM598.508 131.123L599.15 131.89C601.596 129.841 604.618 128.275 608.24 127.207L607.958 126.248L607.675 125.289C603.831 126.421 600.553 128.105 597.866 130.356L598.508 131.123ZM607.958 126.248L608.244 127.206C611.866 126.123 616.041 125.573 620.783 125.573V124.573V123.573C615.891 123.573 611.516 124.14 607.671 125.29L607.958 126.248ZM620.783 124.573V125.573C625.197 125.573 629.177 126.041 632.731 126.966L632.983 125.998L633.235 125.03C629.489 124.055 625.336 123.573 620.783 123.573V124.573ZM632.983 125.998L632.736 126.967C636.315 127.878 639.34 129.171 641.828 130.83L642.383 129.998L642.938 129.166C640.226 127.358 636.983 125.984 633.229 125.029L632.983 125.998ZM642.383 129.998L641.828 130.83C644.314 132.487 646.21 134.47 647.542 136.774L648.408 136.273L649.273 135.772C647.772 133.176 645.652 130.975 642.938 129.166L642.383 129.998ZM648.408 136.273L647.542 136.774C648.866 139.063 649.533 141.606 649.533 144.423H650.533H651.533C651.533 141.274 650.783 138.383 649.273 135.772L648.408 136.273ZM650.533 144.423H649.533C649.533 146.68 649.115 148.723 648.294 150.566L649.208 150.973L650.121 151.38C651.067 149.256 651.533 146.933 651.533 144.423H650.533ZM649.208 150.973L648.294 150.566C647.464 152.43 646.325 154.036 644.875 155.393L645.558 156.123L646.241 156.853C647.891 155.31 649.185 153.482 650.121 151.38L649.208 150.973ZM645.558 156.123L644.879 155.389C643.432 156.726 641.688 157.787 639.63 158.562L639.983 159.498L640.336 160.434C642.611 159.576 644.583 158.386 646.237 156.857L645.558 156.123ZM639.983 159.498L639.634 158.561C637.608 159.315 635.37 159.698 632.908 159.698V160.698V161.698C635.579 161.698 638.057 161.281 640.332 160.435L639.983 159.498ZM632.908 160.698H633.908V160.523H632.908H631.908V160.698H632.908ZM632.908 160.523V161.523C636.096 161.523 638.93 161.905 641.419 162.655L641.708 161.698L641.996 160.741C639.286 159.924 636.253 159.523 632.908 159.523V160.523ZM641.708 161.698L641.421 162.656C643.936 163.409 646.023 164.471 647.706 165.827L648.333 165.048L648.96 164.269C647.043 162.725 644.713 161.554 641.995 160.74L641.708 161.698ZM648.333 165.048L647.709 165.83C649.404 167.183 650.698 168.834 651.599 170.791L652.508 170.373L653.416 169.955C652.384 167.712 650.895 165.813 648.957 164.266L648.333 165.048ZM652.508 170.373L651.604 170.8C652.516 172.733 652.983 174.934 652.983 177.423H653.983H654.983C654.983 174.679 654.467 172.18 653.412 169.946L652.508 170.373ZM653.983 177.423H652.983C652.983 180.548 652.271 183.352 650.861 185.858L651.733 186.348L652.604 186.838C654.195 184.011 654.983 180.865 654.983 177.423H653.983ZM651.733 186.348L650.86 185.86C649.459 188.362 647.445 190.526 644.792 192.349L645.358 193.173L645.924 193.997C648.804 192.02 651.039 189.634 652.605 186.836L651.733 186.348ZM645.358 193.173L644.793 192.348C642.154 194.155 638.946 195.572 635.151 196.582L635.408 197.548L635.665 198.514C639.636 197.458 643.062 195.957 645.923 193.998L645.358 193.173ZM635.408 197.548L635.155 196.581C631.368 197.572 627.121 198.073 622.408 198.073V199.073V200.073C627.261 200.073 631.681 199.557 635.661 198.515L635.408 197.548ZM622.408 199.073V198.073C617.416 198.073 613.015 197.498 609.192 196.364L608.908 197.323L608.623 198.282C612.668 199.481 617.266 200.073 622.408 200.073V199.073ZM608.908 197.323L609.193 196.365C605.385 195.23 602.194 193.58 599.596 191.428L598.958 192.198L598.32 192.968C601.155 195.316 604.597 197.082 608.622 198.281L608.908 197.323ZM598.958 192.198L599.598 191.43C597.021 189.282 595.057 186.644 593.701 183.502L592.783 183.898L591.865 184.294C593.342 187.719 595.495 190.614 598.318 192.966L598.958 192.198ZM592.783 183.898L593.703 183.506C592.364 180.367 591.683 176.746 591.683 172.623H590.683H589.683C589.683 176.966 590.401 180.862 591.863 184.29L592.783 183.898ZM590.683 172.623H591.683V172.498H590.683H589.683V172.623H590.683ZM590.683 172.498V173.498H608.383V172.498V171.498H590.683V172.498ZM608.383 172.498H607.383V173.248H608.383H609.383V172.498H608.383ZM608.383 173.248H607.383C607.383 174.957 607.739 176.539 608.466 177.975L609.358 177.523L610.25 177.071C609.677 175.94 609.383 174.672 609.383 173.248H608.383ZM609.358 177.523L608.473 177.989C609.211 179.391 610.242 180.593 611.551 181.593L612.158 180.798L612.765 180.003C611.674 179.17 610.838 178.188 610.243 177.057L609.358 177.523ZM612.158 180.798L611.558 181.598C612.867 182.58 614.42 183.328 616.198 183.857L616.483 182.898L616.768 181.939C615.179 181.468 613.848 180.816 612.758 179.998L612.158 180.798ZM616.483 182.898L616.209 183.86C618.013 184.373 620.007 184.623 622.183 184.623V183.623V182.623C620.158 182.623 618.352 182.39 616.756 181.936L616.483 182.898ZM622.183 183.623V184.623C624.292 184.623 626.257 184.381 628.07 183.888L627.808 182.923L627.545 181.958C625.925 182.398 624.14 182.623 622.183 182.623V183.623ZM627.808 182.923L628.07 183.888C629.869 183.399 631.452 182.719 632.805 181.835L632.258 180.998L631.711 180.161C630.563 180.911 629.18 181.514 627.545 181.958L627.808 182.923ZM632.258 180.998L632.812 181.83C634.167 180.927 635.249 179.844 636.034 178.573L635.183 178.048L634.332 177.523C633.717 178.519 632.849 179.402 631.703 180.166L632.258 180.998ZM635.183 178.048L636.037 178.568C636.833 177.261 637.233 175.831 637.233 174.298H636.233H635.233C635.233 175.465 634.933 176.535 634.329 177.528L635.183 178.048ZM636.233 174.298H637.233C637.233 173.115 636.971 172.035 636.409 171.097C635.847 170.158 635.02 169.42 633.978 168.865L633.508 169.748L633.038 170.631C633.813 171.043 634.347 171.546 634.694 172.124C635.04 172.703 635.233 173.415 635.233 174.298H636.233ZM633.508 169.748L633.978 168.865C631.938 167.78 628.884 167.298 624.958 167.298V168.298V169.298C628.798 169.298 631.445 169.783 633.038 170.631L633.508 169.748ZM624.958 168.298V167.298H613.033V168.298V169.298H624.958V168.298ZM613.033 168.298H614.033V154.248H613.033H612.033V168.298H613.033ZM613.033 154.248V155.248H624.133V154.248V153.248H613.033V154.248ZM624.133 154.248V155.248C625.626 155.248 626.974 155.109 628.168 154.82L627.933 153.848L627.697 152.876C626.692 153.12 625.507 153.248 624.133 153.248V154.248ZM627.933 153.848L628.165 154.821C629.366 154.534 630.42 154.112 631.304 153.536L630.758 152.698L630.212 151.86C629.562 152.284 628.733 152.629 627.701 152.875L627.933 153.848ZM630.758 152.698L631.317 153.527C632.205 152.929 632.9 152.184 633.369 151.286L632.483 150.823L631.597 150.36C631.299 150.929 630.844 151.434 630.199 151.869L630.758 152.698ZM632.483 150.823L633.365 151.294C633.851 150.382 634.083 149.368 634.083 148.273H633.083H632.083C632.083 149.078 631.914 149.764 631.6 150.352L632.483 150.823ZM633.083 148.273H634.083C634.083 146.864 633.728 145.564 633.009 144.398L632.158 144.923L631.307 145.448C631.821 146.282 632.083 147.215 632.083 148.273H633.083ZM632.158 144.923L633.013 144.404C632.308 143.243 631.328 142.271 630.098 141.481L629.558 142.323L629.018 143.165C630.021 143.809 630.774 144.57 631.303 145.442L632.158 144.923ZM629.558 142.323L630.112 141.491C628.9 140.683 627.458 140.076 625.805 139.654L625.558 140.623L625.31 141.592C626.791 141.97 628.015 142.497 629.003 143.155L629.558 142.323ZM625.558 140.623L625.808 139.655C624.163 139.23 622.361 139.023 620.408 139.023V140.023V141.023C622.221 141.023 623.852 141.216 625.308 141.591L625.558 140.623ZM620.408 140.023V139.023C618.436 139.023 616.644 139.239 615.04 139.684L615.308 140.648L615.575 141.612C616.972 141.224 618.579 141.023 620.408 141.023V140.023ZM615.308 140.648L615.037 139.685C613.452 140.131 612.072 140.791 610.921 141.682L611.533 142.473L612.145 143.264C613.06 142.555 614.197 141.999 615.578 141.611L615.308 140.648ZM611.533 142.473L610.914 141.687C609.779 142.58 608.898 143.676 608.281 144.967L609.183 145.398L610.085 145.829C610.568 144.82 611.253 143.966 612.151 143.259L611.533 142.473ZM609.183 145.398L608.276 144.977C607.672 146.28 607.383 147.744 607.383 149.348H608.383H609.383C609.383 147.985 609.627 146.816 610.09 145.819L609.183 145.398ZM608.383 149.348H607.383V149.848H608.383H609.383V149.348H608.383ZM608.383 149.848V148.848H590.683V149.848V150.848H608.383V149.848Z" fill="white" mask="url(#path-1-outside-1_97_18)"/>
<path d="M40 159.103C35.9615 184.66 11.0577 33.5709 5 2" stroke="white" stroke-width="7"/>
<path d="M51 157.103C47.0769 182.66 22.8846 31.5709 17 0" stroke="white" stroke-width="7"/>
<path d="M19.8182 129.573C9.59533 118.289 45.6187 97.3317 50 103.78" stroke="white" stroke-width="7"/>
<path d="M64.7793 93.073H675.5C677.985 93.073 680 95.0877 680 97.573V225.073C680 227.558 677.985 229.573 675.5 229.573H64.4141C63.4804 229.573 62.5698 229.283 61.8086 228.742L12.3945 193.644C11.2063 192.8 10.5 191.433 10.5 189.975V141.769C10.5001 140.483 11.0509 139.258 12.0127 138.404L61.792 94.2078C62.6154 93.4768 63.6782 93.073 64.7793 93.073Z" stroke="white" stroke-width="3"/>
<mask id="path-7-outside-2_97_18" maskUnits="userSpaceOnUse" x="87" y="123.573" width="72" height="77" fill="black">
<rect fill="white" x="87" y="123.573" width="72" height="77"/>
<path d="M106.9 161.823C106.9 164.206 107.058 166.398 107.375 168.398C107.708 170.398 108.192 172.206 108.825 173.823C109.458 175.44 110.25 176.865 111.2 178.098C112.15 179.315 113.233 180.331 114.45 181.148C115.683 181.965 117.058 182.581 118.575 182.998C120.092 183.415 121.75 183.623 123.55 183.623C125.683 183.623 127.592 183.306 129.275 182.673C130.975 182.04 132.458 181.09 133.725 179.823C134.992 178.54 136.042 176.948 136.875 175.048C137.725 173.131 138.35 170.89 138.75 168.323H157.075C156.425 173.106 155.175 177.398 153.325 181.198C151.475 184.981 149.1 188.198 146.2 190.848C143.317 193.498 139.958 195.531 136.125 196.948C132.308 198.365 128.108 199.073 123.525 199.073C120.108 199.073 116.858 198.673 113.775 197.873C110.708 197.073 107.867 195.923 105.25 194.423C102.65 192.923 100.3 191.09 98.2 188.923C96.1167 186.74 94.3417 184.273 92.875 181.523C91.4083 178.756 90.275 175.723 89.475 172.423C88.6917 169.123 88.3 165.59 88.3 161.823C88.3 158.056 88.6917 154.523 89.475 151.223C90.275 147.923 91.4083 144.898 92.875 142.148C94.3417 139.381 96.1167 136.915 98.2 134.748C100.3 132.565 102.65 130.723 105.25 129.223C107.867 127.723 110.708 126.573 113.775 125.773C116.858 124.973 120.108 124.573 123.525 124.573C128.108 124.573 132.308 125.281 136.125 126.698C139.958 128.115 143.317 130.148 146.2 132.798C149.1 135.448 151.475 138.673 153.325 142.473C155.175 146.256 156.425 150.54 157.075 155.323H138.75C138.35 152.756 137.725 150.523 136.875 148.623C136.042 146.706 134.992 145.115 133.725 143.848C132.458 142.565 130.975 141.606 129.275 140.973C127.592 140.34 125.683 140.023 123.55 140.023C121.75 140.023 120.092 140.231 118.575 140.648C117.058 141.065 115.683 141.681 114.45 142.498C113.233 143.315 112.15 144.34 111.2 145.573C110.25 146.79 109.458 148.206 108.825 149.823C108.192 151.44 107.708 153.248 107.375 155.248C107.058 157.248 106.9 159.44 106.9 161.823Z"/>
</mask>
<path d="M106.9 161.823C106.9 164.206 107.058 166.398 107.375 168.398C107.708 170.398 108.192 172.206 108.825 173.823C109.458 175.44 110.25 176.865 111.2 178.098C112.15 179.315 113.233 180.331 114.45 181.148C115.683 181.965 117.058 182.581 118.575 182.998C120.092 183.415 121.75 183.623 123.55 183.623C125.683 183.623 127.592 183.306 129.275 182.673C130.975 182.04 132.458 181.09 133.725 179.823C134.992 178.54 136.042 176.948 136.875 175.048C137.725 173.131 138.35 170.89 138.75 168.323H157.075C156.425 173.106 155.175 177.398 153.325 181.198C151.475 184.981 149.1 188.198 146.2 190.848C143.317 193.498 139.958 195.531 136.125 196.948C132.308 198.365 128.108 199.073 123.525 199.073C120.108 199.073 116.858 198.673 113.775 197.873C110.708 197.073 107.867 195.923 105.25 194.423C102.65 192.923 100.3 191.09 98.2 188.923C96.1167 186.74 94.3417 184.273 92.875 181.523C91.4083 178.756 90.275 175.723 89.475 172.423C88.6917 169.123 88.3 165.59 88.3 161.823C88.3 158.056 88.6917 154.523 89.475 151.223C90.275 147.923 91.4083 144.898 92.875 142.148C94.3417 139.381 96.1167 136.915 98.2 134.748C100.3 132.565 102.65 130.723 105.25 129.223C107.867 127.723 110.708 126.573 113.775 125.773C116.858 124.973 120.108 124.573 123.525 124.573C128.108 124.573 132.308 125.281 136.125 126.698C139.958 128.115 143.317 130.148 146.2 132.798C149.1 135.448 151.475 138.673 153.325 142.473C155.175 146.256 156.425 150.54 157.075 155.323H138.75C138.35 152.756 137.725 150.523 136.875 148.623C136.042 146.706 134.992 145.115 133.725 143.848C132.458 142.565 130.975 141.606 129.275 140.973C127.592 140.34 125.683 140.023 123.55 140.023C121.75 140.023 120.092 140.231 118.575 140.648C117.058 141.065 115.683 141.681 114.45 142.498C113.233 143.315 112.15 144.34 111.2 145.573C110.25 146.79 109.458 148.206 108.825 149.823C108.192 151.44 107.708 153.248 107.375 155.248C107.058 157.248 106.9 159.44 106.9 161.823Z" fill="white"/>
<path d="M107.375 168.398L106.387 168.554L106.389 168.562L107.375 168.398ZM108.825 173.823L107.894 174.188L108.825 173.823ZM111.2 178.098L110.408 178.708L110.412 178.713L111.2 178.098ZM114.45 181.148L113.893 181.978L113.898 181.982L114.45 181.148ZM118.575 182.998L118.31 183.962L118.575 182.998ZM129.275 182.673L128.926 181.736L128.923 181.737L129.275 182.673ZM133.725 179.823L134.432 180.53L134.437 180.525L133.725 179.823ZM136.875 175.048L135.961 174.643L135.959 174.646L136.875 175.048ZM138.75 168.323V167.323H137.894L137.762 168.169L138.75 168.323ZM157.075 168.323L158.066 168.458L158.22 167.323H157.075V168.323ZM153.325 181.198L154.223 181.637L154.224 181.636L153.325 181.198ZM146.2 190.848L145.525 190.11L145.523 190.112L146.2 190.848ZM136.125 196.948L135.778 196.01L135.777 196.01L136.125 196.948ZM113.775 197.873L113.523 198.841L113.524 198.841L113.775 197.873ZM105.25 194.423L104.75 195.289L104.753 195.291L105.25 194.423ZM98.2 188.923L97.4765 189.613L97.4819 189.619L98.2 188.923ZM92.875 181.523L91.9915 181.991L91.9926 181.994L92.875 181.523ZM89.475 172.423L88.502 172.654L88.5032 172.659L89.475 172.423ZM89.475 151.223L88.5031 150.987L88.502 150.992L89.475 151.223ZM92.875 142.148L93.7574 142.619L93.7585 142.616L92.875 142.148ZM98.2 134.748L97.4793 134.055L97.4792 134.055L98.2 134.748ZM105.25 129.223L104.753 128.355L104.75 128.357L105.25 129.223ZM113.775 125.773L113.524 124.805L113.523 124.805L113.775 125.773ZM136.125 126.698L135.777 127.635L135.778 127.636L136.125 126.698ZM146.2 132.798L145.523 133.534L145.525 133.536L146.2 132.798ZM153.325 142.473L152.426 142.911L152.427 142.912L153.325 142.473ZM157.075 155.323V156.323H158.22L158.066 155.188L157.075 155.323ZM138.75 155.323L137.762 155.477L137.894 156.323H138.75V155.323ZM136.875 148.623L135.958 149.022L135.962 149.031L136.875 148.623ZM133.725 143.848L133.013 144.55L133.018 144.555L133.725 143.848ZM129.275 140.973L128.923 141.909L128.926 141.91L129.275 140.973ZM118.575 140.648L118.31 139.684L118.575 140.648ZM114.45 142.498L113.898 141.664L113.893 141.668L114.45 142.498ZM111.2 145.573L111.988 146.188L111.992 146.183L111.2 145.573ZM108.825 149.823L109.756 150.188L108.825 149.823ZM107.375 155.248L106.389 155.084L106.387 155.092L107.375 155.248ZM106.9 161.823H105.9C105.9 164.25 106.061 166.495 106.387 168.554L107.375 168.398L108.363 168.242C108.056 166.301 107.9 164.163 107.9 161.823H106.9ZM107.375 168.398L106.389 168.562C106.732 170.62 107.231 172.497 107.894 174.188L108.825 173.823L109.756 173.458C109.152 171.916 108.685 170.176 108.361 168.234L107.375 168.398ZM108.825 173.823L107.894 174.188C108.558 175.882 109.394 177.392 110.408 178.708L111.2 178.098L111.992 177.488C111.106 176.337 110.359 174.997 109.756 173.458L108.825 173.823ZM111.2 178.098L110.412 178.713C111.423 180.009 112.584 181.1 113.893 181.978L114.45 181.148L115.007 180.318C113.883 179.563 112.877 178.62 111.988 177.483L111.2 178.098ZM114.45 181.148L113.898 181.982C115.225 182.86 116.698 183.519 118.31 183.962L118.575 182.998L118.84 182.034C117.419 181.643 116.142 181.069 115.002 180.314L114.45 181.148ZM118.575 182.998L118.31 183.962C119.924 184.406 121.673 184.623 123.55 184.623V183.623V182.623C121.827 182.623 120.259 182.424 118.84 182.034L118.575 182.998ZM123.55 183.623V184.623C125.782 184.623 127.812 184.292 129.627 183.609L129.275 182.673L128.923 181.737C127.371 182.321 125.585 182.623 123.55 182.623V183.623ZM129.275 182.673L129.624 183.61C131.457 182.927 133.063 181.9 134.432 180.53L133.725 179.823L133.018 179.116C131.854 180.28 130.493 181.152 128.926 181.736L129.275 182.673ZM133.725 179.823L134.437 180.525C135.801 179.143 136.916 177.445 137.791 175.45L136.875 175.048L135.959 174.646C135.168 176.451 134.182 177.936 133.013 179.121L133.725 179.823ZM136.875 175.048L137.789 175.453C138.682 173.44 139.328 171.111 139.738 168.477L138.75 168.323L137.762 168.169C137.372 170.669 136.768 172.823 135.961 174.643L136.875 175.048ZM138.75 168.323V169.323H157.075V168.323V167.323H138.75V168.323ZM157.075 168.323L156.084 168.188C155.446 172.881 154.223 177.068 152.426 180.76L153.325 181.198L154.224 181.636C156.127 177.728 157.404 173.332 158.066 168.458L157.075 168.323ZM153.325 181.198L152.427 180.759C150.628 184.437 148.326 187.55 145.525 190.11L146.2 190.848L146.875 191.586C149.874 188.846 152.322 185.525 154.223 181.637L153.325 181.198ZM146.2 190.848L145.523 190.112C142.74 192.67 139.495 194.636 135.778 196.01L136.125 196.948L136.472 197.886C140.422 196.426 143.893 194.326 146.877 191.584L146.2 190.848ZM136.125 196.948L135.777 196.01C132.085 197.381 128.004 198.073 123.525 198.073V199.073V200.073C128.212 200.073 132.532 199.348 136.473 197.885L136.125 196.948ZM123.525 199.073V198.073C120.187 198.073 117.022 197.682 114.026 196.905L113.775 197.873L113.524 198.841C116.695 199.664 120.03 200.073 123.525 200.073V199.073ZM113.775 197.873L114.027 196.905C111.042 196.127 108.283 195.009 105.747 193.555L105.25 194.423L104.753 195.291C107.45 196.837 110.375 198.019 113.523 198.841L113.775 197.873ZM105.25 194.423L105.75 193.557C103.23 192.103 100.954 190.327 98.9181 188.227L98.2 188.923L97.4819 189.619C99.6461 191.852 102.07 193.743 104.75 195.289L105.25 194.423ZM98.2 188.923L98.9235 188.233C96.9049 186.117 95.1827 183.725 93.7574 181.052L92.875 181.523L91.9926 181.994C93.5006 184.821 95.3285 187.362 97.4765 189.613L98.2 188.923ZM92.875 181.523L93.7585 181.055C92.334 178.367 91.2289 175.413 90.4469 172.187L89.475 172.423L88.5032 172.659C89.3211 176.033 90.4827 179.145 91.9915 181.991L92.875 181.523ZM89.475 172.423L90.448 172.192C89.6844 168.976 89.3 165.52 89.3 161.823H88.3H87.3C87.3 165.659 87.6989 169.27 88.502 172.654L89.475 172.423ZM88.3 161.823H89.3C89.3 158.126 89.6844 154.67 90.448 151.454L89.475 151.223L88.502 150.992C87.6989 154.376 87.3 157.987 87.3 161.823H88.3ZM89.475 151.223L90.4469 151.459C91.2288 148.233 92.3336 145.288 93.7574 142.619L92.875 142.148L91.9926 141.677C90.483 144.508 89.3212 147.613 88.5032 150.987L89.475 151.223ZM92.875 142.148L93.7585 142.616C95.1835 139.928 96.9046 137.538 98.9208 135.441L98.2 134.748L97.4792 134.055C95.3288 136.291 93.4998 138.834 91.9915 141.68L92.875 142.148ZM98.2 134.748L98.9207 135.441C100.956 133.325 103.232 131.542 105.75 130.089L105.25 129.223L104.75 128.357C102.068 129.904 99.6438 131.804 97.4793 134.055L98.2 134.748ZM105.25 129.223L105.747 130.091C108.283 128.637 111.042 127.519 114.027 126.741L113.775 125.773L113.523 124.805C110.375 125.627 107.45 126.809 104.753 128.355L105.25 129.223ZM113.775 125.773L114.026 126.741C117.022 125.964 120.187 125.573 123.525 125.573V124.573V123.573C120.03 123.573 116.695 123.982 113.524 124.805L113.775 125.773ZM123.525 124.573V125.573C128.004 125.573 132.085 126.265 135.777 127.635L136.125 126.698L136.473 125.76C132.532 124.298 128.212 123.573 123.525 123.573V124.573ZM136.125 126.698L135.778 127.636C139.495 129.01 142.74 130.976 145.523 133.534L146.2 132.798L146.877 132.062C143.893 129.32 140.422 127.22 136.472 125.76L136.125 126.698ZM146.2 132.798L145.525 133.536C148.325 136.095 150.627 139.215 152.426 142.911L153.325 142.473L154.224 142.035C152.323 138.131 149.875 134.801 146.875 132.06L146.2 132.798ZM153.325 142.473L152.427 142.912C154.223 146.587 155.446 150.765 156.084 155.458L157.075 155.323L158.066 155.188C157.404 150.314 156.127 145.926 154.223 142.034L153.325 142.473ZM157.075 155.323V154.323H138.75V155.323V156.323H157.075V155.323ZM138.75 155.323L139.738 155.169C139.328 152.535 138.682 150.213 137.788 148.215L136.875 148.623L135.962 149.031C136.768 150.833 137.372 152.977 137.762 155.477L138.75 155.323ZM136.875 148.623L137.792 148.224C136.917 146.211 135.801 144.51 134.432 143.141L133.725 143.848L133.018 144.555C134.182 145.72 135.166 147.201 135.958 149.022L136.875 148.623ZM133.725 143.848L134.437 143.146C133.067 141.758 131.46 140.72 129.624 140.036L129.275 140.973L128.926 141.91C130.49 142.493 131.85 143.371 133.013 144.55L133.725 143.848ZM129.275 140.973L129.627 140.037C127.812 139.354 125.782 139.023 123.55 139.023V140.023V141.023C125.585 141.023 127.371 141.325 128.923 141.909L129.275 140.973ZM123.55 140.023V139.023C121.673 139.023 119.924 139.24 118.31 139.684L118.575 140.648L118.84 141.612C120.259 141.222 121.827 141.023 123.55 141.023V140.023ZM118.575 140.648L118.31 139.684C116.698 140.127 115.225 140.786 113.898 141.664L114.45 142.498L115.002 143.332C116.142 142.577 117.419 142.003 118.84 141.612L118.575 140.648ZM114.45 142.498L113.893 141.668C112.581 142.548 111.42 143.649 110.408 144.963L111.2 145.573L111.992 146.183C112.88 145.03 113.886 144.081 115.007 143.328L114.45 142.498ZM111.2 145.573L110.412 144.958C109.395 146.259 108.558 147.763 107.894 149.458L108.825 149.823L109.756 150.188C110.358 148.65 111.105 147.32 111.988 146.188L111.2 145.573ZM108.825 149.823L107.894 149.458C107.231 151.149 106.732 153.026 106.389 155.084L107.375 155.248L108.361 155.412C108.685 153.47 109.152 151.73 109.756 150.188L108.825 149.823ZM107.375 155.248L106.387 155.092C106.061 157.151 105.9 159.396 105.9 161.823H106.9H107.9C107.9 159.483 108.056 157.345 108.363 155.404L107.375 155.248Z" fill="white" mask="url(#path-7-outside-2_97_18)"/>
<circle cx="46.5" cy="164.5" r="15" stroke="white" stroke-width="3"/>
<path d="M40 159.103C35.9615 184.66 11.0577 33.5709 5 2" stroke="white" stroke-width="7"/>
<path d="M51 157.103C47.0769 182.66 22.8846 31.5709 17 0" stroke="white" stroke-width="7"/>
<path d="M19.8182 129.573C9.59533 118.289 45.6187 97.3317 50 103.78" stroke="white" stroke-width="7"/>
</g>
<defs>
<clipPath id="clip0_97_18">
<rect width="682" height="233" fill="white"/>
</clipPath>
</defs>
</svg>
