<svg width="837" height="151" viewBox="0 0 837 151" fill="none" xmlns="http://www.w3.org/2000/svg">
<path d="M125.79 49.8466H103.631C102.778 45.1117 101.192 40.9451 98.8722 37.3466C96.5521 33.7481 93.7112 30.6941 90.3494 28.1847C86.9877 25.6752 83.2235 23.7812 79.0568 22.5028C74.9375 21.2244 70.5578 20.5852 65.9176 20.5852C57.5369 20.5852 50.0322 22.6922 43.4034 26.9062C36.822 31.1203 31.6136 37.2992 27.7784 45.4432C23.9905 53.5871 22.0966 63.5303 22.0966 75.2727C22.0966 87.1098 23.9905 97.1004 27.7784 105.244C31.6136 113.388 36.8456 119.544 43.4744 123.71C50.1032 127.877 57.5606 129.96 65.8466 129.96C70.4394 129.96 74.7955 129.345 78.9148 128.114C83.0814 126.835 86.8456 124.965 90.2074 122.503C93.5691 120.041 96.41 117.034 98.7301 113.483C101.098 109.884 102.731 105.765 103.631 101.125L125.79 101.196C124.606 108.346 122.31 114.927 118.901 120.94C115.539 126.906 111.206 132.067 105.903 136.423C100.648 140.732 94.6345 144.07 87.8636 146.438C81.0928 148.805 73.7064 149.989 65.7045 149.989C53.1098 149.989 41.8883 147.006 32.0398 141.04C22.1913 135.027 14.4261 126.433 8.74432 115.259C3.10985 104.084 0.292614 90.7557 0.292614 75.2727C0.292614 59.7424 3.13352 46.4138 8.81534 35.2869C14.4972 24.1127 22.2623 15.5426 32.1108 9.5767C41.9593 3.56344 53.1572 0.556813 65.7045 0.556813C73.4223 0.556813 80.6193 1.6695 87.2955 3.89489C94.0189 6.07291 100.056 9.29261 105.406 13.554C110.757 17.768 115.184 22.929 118.688 29.0369C122.191 35.0975 124.559 42.0341 125.79 49.8466ZM163.582 83.2273V148H142.346V2.54545H163.298V56.6648H164.647C167.204 50.7936 171.11 46.1297 176.366 42.6733C181.621 39.2169 188.487 37.4886 196.962 37.4886C204.443 37.4886 210.978 39.0275 216.565 42.1051C222.199 45.1828 226.555 49.7756 229.633 55.8835C232.758 61.9441 234.32 69.5199 234.32 78.6108V148H213.085V81.1676C213.085 73.1657 211.025 66.9631 206.906 62.5597C202.786 58.1089 197.057 55.8835 189.718 55.8835C184.699 55.8835 180.201 56.9489 176.224 59.0795C172.294 61.2102 169.192 64.3352 166.92 68.4545C164.694 72.5265 163.582 77.4508 163.582 83.2273ZM286.406 150.415C279.493 150.415 273.243 149.136 267.656 146.58C262.068 143.975 257.641 140.211 254.374 135.287C251.155 130.363 249.545 124.326 249.545 117.176C249.545 111.021 250.728 105.955 253.096 101.977C255.463 98 258.659 94.8513 262.684 92.5312C266.709 90.2112 271.207 88.4593 276.178 87.2756C281.15 86.0919 286.216 85.1922 291.377 84.5767C297.911 83.8191 303.214 83.2036 307.286 82.7301C311.358 82.2093 314.317 81.3807 316.164 80.2443C318.011 79.108 318.934 77.2614 318.934 74.7045V74.2074C318.934 68.0047 317.182 63.1989 313.678 59.7898C310.222 56.3807 305.061 54.6761 298.195 54.6761C291.046 54.6761 285.411 56.2623 281.292 59.4347C277.22 62.5597 274.403 66.0398 272.84 69.875L252.883 65.3295C255.25 58.7008 258.707 53.3504 263.252 49.2784C267.845 45.1591 273.124 42.1761 279.09 40.3295C285.056 38.4356 291.33 37.4886 297.911 37.4886C302.267 37.4886 306.884 38.0095 311.761 39.0511C316.685 40.0455 321.278 41.892 325.539 44.5909C329.848 47.2898 333.375 51.1487 336.121 56.1676C338.868 61.1392 340.241 67.6023 340.241 75.5568V148H319.502V133.085H318.65C317.277 135.831 315.217 138.53 312.471 141.182C309.725 143.833 306.197 146.035 301.888 147.787C297.58 149.539 292.419 150.415 286.406 150.415ZM291.022 133.369C296.893 133.369 301.912 132.209 306.079 129.889C310.293 127.569 313.489 124.539 315.667 120.798C317.892 117.01 319.005 112.962 319.005 108.653V94.5909C318.247 95.3485 316.78 96.0587 314.602 96.7216C312.471 97.3371 310.032 97.8816 307.286 98.3551C304.54 98.7812 301.865 99.1837 299.261 99.5625C296.656 99.8939 294.478 100.178 292.727 100.415C288.607 100.936 284.843 101.812 281.434 103.043C278.072 104.274 275.373 106.049 273.337 108.369C271.349 110.642 270.354 113.672 270.354 117.46C270.354 122.716 272.296 126.693 276.178 129.392C280.061 132.044 285.009 133.369 291.022 133.369ZM381.761 83.2273V148H360.526V38.9091H380.909V56.6648H382.259C384.768 50.8883 388.698 46.2481 394.048 42.7443C399.446 39.2405 406.241 37.4886 414.432 37.4886C421.866 37.4886 428.376 39.0511 433.963 42.1761C439.55 45.2538 443.883 49.8466 446.96 55.9545C450.038 62.0625 451.577 69.6146 451.577 78.6108V148H430.341V81.1676C430.341 73.2604 428.281 67.0814 424.162 62.6307C420.043 58.1326 414.384 55.8835 407.188 55.8835C402.263 55.8835 397.884 56.9489 394.048 59.0795C390.26 61.2102 387.254 64.3352 385.028 68.4545C382.85 72.5265 381.761 77.4508 381.761 83.2273ZM493.293 83.2273V148H472.057V38.9091H492.44V56.6648H493.79C496.299 50.8883 500.229 46.2481 505.58 42.7443C510.977 39.2405 517.772 37.4886 525.963 37.4886C533.397 37.4886 539.907 39.0511 545.494 42.1761C551.081 45.2538 555.414 49.8466 558.491 55.9545C561.569 62.0625 563.108 69.6146 563.108 78.6108V148H541.872V81.1676C541.872 73.2604 539.813 67.0814 535.693 62.6307C531.574 58.1326 525.916 55.8835 518.719 55.8835C513.795 55.8835 509.415 56.9489 505.58 59.0795C501.792 61.2102 498.785 64.3352 496.56 68.4545C494.382 72.5265 493.293 77.4508 493.293 83.2273ZM630.605 150.202C619.857 150.202 610.6 147.905 602.835 143.312C595.117 138.672 589.152 132.162 584.938 123.781C580.771 115.353 578.688 105.481 578.688 94.1648C578.688 82.9905 580.771 73.142 584.938 64.6193C589.152 56.0966 595.023 49.4441 602.551 44.6619C610.127 39.8797 618.981 37.4886 629.114 37.4886C635.269 37.4886 641.235 38.5066 647.011 40.5426C652.788 42.5786 657.973 45.7746 662.565 50.1307C667.158 54.4867 670.78 60.1449 673.432 67.1051C676.083 74.018 677.409 82.4223 677.409 92.3182V99.8466H590.69V83.9375H656.599C656.599 78.3504 655.463 73.4025 653.19 69.0938C650.918 64.7377 647.722 61.3049 643.602 58.7955C639.53 56.286 634.748 55.0312 629.256 55.0312C623.29 55.0312 618.081 56.4991 613.631 59.4347C609.227 62.3229 605.818 66.1108 603.403 70.7983C601.036 75.4384 599.852 80.4811 599.852 85.9261V98.3551C599.852 105.647 601.131 111.849 603.688 116.963C606.292 122.077 609.914 125.983 614.554 128.682C619.194 131.333 624.616 132.659 630.818 132.659C634.843 132.659 638.512 132.091 641.827 130.955C645.141 129.771 648.006 128.019 650.42 125.699C652.835 123.379 654.682 120.514 655.96 117.105L676.06 120.727C674.45 126.646 671.562 131.83 667.395 136.281C663.276 140.685 658.091 144.117 651.841 146.58C645.638 148.994 638.56 150.202 630.605 150.202ZM714.207 2.54545V148H692.971V2.54545H714.207ZM785.131 149.989C775.377 149.989 766.665 148.308 758.994 144.946C751.371 141.584 745.334 136.92 740.884 130.955C736.48 124.941 734.113 117.981 733.781 110.074H756.082C756.366 114.383 757.811 118.123 760.415 121.295C763.066 124.42 766.523 126.835 770.784 128.54C775.045 130.244 779.78 131.097 784.989 131.097C790.718 131.097 795.784 130.102 800.188 128.114C804.638 126.125 808.118 123.355 810.628 119.804C813.137 116.205 814.392 112.062 814.392 107.375C814.392 102.498 813.137 98.2131 810.628 94.5199C808.166 90.7794 804.544 87.8437 799.761 85.7131C795.027 83.5824 789.297 82.517 782.574 82.517H770.287V64.6193H782.574C787.972 64.6193 792.706 63.6487 796.778 61.7074C800.898 59.7661 804.117 57.0672 806.438 53.6108C808.758 50.107 809.918 46.0114 809.918 41.3239C809.918 36.8258 808.9 32.9195 806.864 29.6051C804.875 26.2434 802.034 23.6155 798.341 21.7216C794.695 19.8276 790.386 18.8807 785.415 18.8807C780.68 18.8807 776.253 19.7566 772.134 21.5085C768.062 23.2131 764.747 25.6752 762.19 28.8949C759.634 32.0672 758.26 35.8788 758.071 40.3295H736.835C737.072 32.4697 739.392 25.5568 743.795 19.5909C748.246 13.625 754.117 8.96117 761.409 5.59943C768.701 2.23768 776.797 0.556813 785.699 0.556813C795.027 0.556813 803.076 2.37973 809.847 6.02556C816.665 9.62405 821.92 14.4299 825.614 20.4432C829.354 26.4564 831.201 33.0379 831.153 40.1875C831.201 48.3314 828.928 55.2443 824.335 60.9261C819.79 66.608 813.729 70.4195 806.153 72.3608V73.4972C815.813 74.965 823.294 78.8002 828.597 85.0028C833.947 91.2055 836.598 98.8996 836.551 108.085C836.598 116.087 834.373 123.26 829.875 129.605C825.424 135.95 819.34 140.945 811.622 144.591C803.904 148.189 795.074 149.989 785.131 149.989Z" fill="white"/>
</svg>
